<?xml version="1.0" standalone="no"?>
<!DOCTYPE svg PUBLIC "-//W3C//DTD SVG 20010904//EN"
 "http://www.w3.org/TR/2001/REC-SVG-20010904/DTD/svg10.dtd">
<svg version="1.0" xmlns="http://www.w3.org/2000/svg"
 width="557.000000pt" height="557.000000pt" viewBox="0 0 557.000000 557.000000"
 preserveAspectRatio="xMidYMid meet">
<metadata>
Created by potrace 1.11, written by Peter Selinger 2001-2013
</metadata>
<g transform="translate(0.000000,557.000000) scale(0.100000,-0.100000)"
fill="#000000" stroke="none">
<path d="M1416 4651 c-55 -19 -89 -54 -107 -109 -15 -45 -21 -457 -7 -511 25
-98 61 -138 143 -160 52 -14 2574 -14 2658 0 79 13 122 43 148 104 20 45 23
71 27 257 6 304 -11 378 -102 419 -39 18 -95 19 -1376 18 -1235 -1 -1339 -2
-1384 -18z"/>
<path d="M1677 3734 c-1 -1 -45 -4 -97 -7 -125 -7 -184 -23 -225 -61 -53 -50
-60 -92 -60 -346 1 -243 7 -287 51 -340 59 -70 -44 -65 1404 -67 1424 -1 1403
-2 1461 53 56 54 64 95 64 344 0 279 -6 321 -56 366 -44 40 -86 46 -304 51
-193 4 -2235 10 -2238 7z"/>
<path d="M1515 2718 c-93 -11 -127 -23 -161 -57 -53 -53 -62 -109 -60 -361 3
-254 13 -301 70 -345 66 -50 43 -49 1376 -49 685 0 1278 3 1318 6 103 9 158
39 191 103 25 49 26 54 28 280 3 274 -8 338 -62 379 -18 14 -55 31 -81 37 -57
14 -2502 20 -2619 7z"/>
<path d="M1490 1713 c-55 -9 -118 -35 -137 -56 -51 -55 -56 -83 -59 -328 -4
-284 14 -355 103 -398 l44 -21 1332 0 c928 0 1344 3 1372 11 52 14 90 51 112
108 15 39 18 80 18 281 0 129 -4 252 -8 272 -10 47 -50 96 -97 117 -32 14
-162 16 -1345 17 -720 1 -1321 -1 -1335 -3z"/>
</g>
</svg>
